<svg width="20" height="21" viewBox="0 0 20 21" fill="none" xmlns="http://www.w3.org/2000/svg">
<path d="M11.2497 5.86666C11.4798 5.86666 11.6663 5.68011 11.6663 5.44999C11.6663 5.21987 11.4798 5.03333 11.2497 5.03333C11.0196 5.03333 10.833 5.21987 10.833 5.44999C10.833 5.68011 11.0196 5.86666 11.2497 5.86666Z" fill="#4A148C" stroke="#4A148C" stroke-width="1.66667" stroke-linecap="round" stroke-linejoin="round"/>
<path d="M14.5837 9.2C14.8138 9.2 15.0003 9.01345 15.0003 8.78334C15.0003 8.55322 14.8138 8.36667 14.5837 8.36667C14.3535 8.36667 14.167 8.55322 14.167 8.78334C14.167 9.01345 14.3535 9.2 14.5837 9.2Z" fill="#4A148C" stroke="#4A148C" stroke-width="1.66667" stroke-linecap="round" stroke-linejoin="round"/>
<path d="M7.08366 6.7C7.31378 6.7 7.50033 6.51345 7.50033 6.28334C7.50033 6.05322 7.31378 5.86667 7.08366 5.86667C6.85354 5.86667 6.66699 6.05322 6.66699 6.28334C6.66699 6.51345 6.85354 6.7 7.08366 6.7Z" fill="#4A148C" stroke="#4A148C" stroke-width="1.66667" stroke-linecap="round" stroke-linejoin="round"/>
<path d="M5.41667 10.8667C5.64679 10.8667 5.83333 10.6801 5.83333 10.45C5.83333 10.2199 5.64679 10.0333 5.41667 10.0333C5.18655 10.0333 5 10.2199 5 10.45C5 10.6801 5.18655 10.8667 5.41667 10.8667Z" fill="#4A148C" stroke="#4A148C" stroke-width="1.66667" stroke-linecap="round" stroke-linejoin="round"/>
<path d="M10.0003 1.69998C5.41699 1.69998 1.66699 5.44998 1.66699 10.0333C1.66699 14.6166 5.41699 18.3666 10.0003 18.3666C10.772 18.3666 11.3737 17.745 11.3737 16.96C11.3737 16.5958 11.2237 16.2641 11.0095 16.0225C10.7678 15.7816 10.6445 15.4791 10.6445 15.085C10.6413 14.9016 10.6751 14.7194 10.7439 14.5493C10.8126 14.3793 10.9149 14.2248 11.0446 14.0951C11.1743 13.9654 11.3288 13.8631 11.4988 13.7944C11.6689 13.7256 11.8511 13.6918 12.0345 13.695H13.6978C16.2403 13.695 18.327 11.6091 18.327 9.06665C18.3045 5.04332 14.5512 1.69998 10.0003 1.69998Z" stroke="#4A148C" stroke-width="1.66667" stroke-linecap="round" stroke-linejoin="round"/>
</svg>
