<svg width="20" height="21" viewBox="0 0 20 21" fill="none" xmlns="http://www.w3.org/2000/svg">
<path d="M17.8503 9.60168C17.9995 9.53587 18.1261 9.42774 18.2144 9.29068C18.3028 9.15363 18.3489 8.99367 18.3473 8.83063C18.3456 8.66758 18.2961 8.50862 18.2049 8.37342C18.1138 8.23822 17.985 8.13273 17.8345 8.07001L10.692 4.81668C10.4749 4.71764 10.239 4.66638 10.0003 4.66638C9.76166 4.66638 9.52579 4.71764 9.30865 4.81668L2.16699 8.06668C2.01863 8.13166 1.89242 8.23846 1.80379 8.37403C1.71517 8.50959 1.66797 8.66805 1.66797 8.83001C1.66797 8.99198 1.71517 9.15043 1.80379 9.286C1.89242 9.42157 2.01863 9.52837 2.16699 9.59335L9.30865 12.85C9.52579 12.9491 9.76166 13.0003 10.0003 13.0003C10.239 13.0003 10.4749 12.9491 10.692 12.85L17.8503 9.60168Z" stroke="#4B5563" stroke-width="1.66667" stroke-linecap="round" stroke-linejoin="round"/>
<path d="M18.333 8.83331V13.8333" stroke="#4B5563" stroke-width="1.66667" stroke-linecap="round" stroke-linejoin="round"/>
<path d="M5 10.9167V13.8334C5 14.4964 5.52678 15.1323 6.46447 15.6011C7.40215 16.07 8.67392 16.3334 10 16.3334C11.3261 16.3334 12.5979 16.07 13.5355 15.6011C14.4732 15.1323 15 14.4964 15 13.8334V10.9167" stroke="#4B5563" stroke-width="1.66667" stroke-linecap="round" stroke-linejoin="round"/>
</svg>
