<svg width="20" height="21" viewBox="0 0 20 21" fill="none" xmlns="http://www.w3.org/2000/svg">
<path d="M9.16699 2.16666V3.83332" stroke="#B71C1C" stroke-width="1.66667" stroke-linecap="round" stroke-linejoin="round"/>
<path d="M4.16699 2.16666V3.83332" stroke="#B71C1C" stroke-width="1.66667" stroke-linecap="round" stroke-linejoin="round"/>
<path d="M4.16699 3H3.33366C2.89163 3 2.46771 3.17559 2.15515 3.48816C1.84259 3.80072 1.66699 4.22464 1.66699 4.66667V8C1.66699 9.32608 2.19378 10.5979 3.13146 11.5355C4.06914 12.4732 5.34091 13 6.66699 13C7.99307 13 9.26484 12.4732 10.2025 11.5355C11.1402 10.5979 11.667 9.32608 11.667 8V4.66667C11.667 4.22464 11.4914 3.80072 11.1788 3.48816C10.8663 3.17559 10.4424 3 10.0003 3H9.16699" stroke="#B71C1C" stroke-width="1.66667" stroke-linecap="round" stroke-linejoin="round"/>
<path d="M6.66699 13C6.66699 14.3261 7.19378 15.5979 8.13146 16.5355C9.06914 17.4732 10.3409 18 11.667 18C12.9931 18 14.2648 17.4732 15.2025 16.5355C16.1402 15.5979 16.667 14.3261 16.667 13V10.5" stroke="#B71C1C" stroke-width="1.66667" stroke-linecap="round" stroke-linejoin="round"/>
<path d="M16.6667 10.5C17.5871 10.5 18.3333 9.7538 18.3333 8.83332C18.3333 7.91285 17.5871 7.16666 16.6667 7.16666C15.7462 7.16666 15 7.91285 15 8.83332C15 9.7538 15.7462 10.5 16.6667 10.5Z" stroke="#B71C1C" stroke-width="1.66667" stroke-linecap="round" stroke-linejoin="round"/>
</svg>
