<svg width="20" height="21" viewBox="0 0 20 21" fill="none" xmlns="http://www.w3.org/2000/svg">
<path d="M9.16645 17.1667C7.70316 17.1711 6.29166 16.6254 5.21188 15.6379C4.1321 14.6503 3.46292 13.293 3.33706 11.8351C3.2112 10.3772 3.63785 8.92532 4.5324 7.7673C5.42695 6.60929 6.72405 5.82977 8.16645 5.58335C12.9164 4.66669 14.1664 4.23335 15.8331 2.16669C16.6664 3.83335 17.4998 5.65002 17.4998 8.83335C17.4998 13.4167 13.5164 17.1667 9.16645 17.1667Z" stroke="#004D40" stroke-width="1.66667" stroke-linecap="round" stroke-linejoin="round"/>
<path d="M1.66699 18C1.66699 15.5 3.20866 13.5333 5.90033 13C7.91699 12.6 10.0003 11.3333 10.8337 10.5" stroke="#004D40" stroke-width="1.66667" stroke-linecap="round" stroke-linejoin="round"/>
</svg>
