<svg width="20" height="21" viewBox="0 0 20 21" fill="none" xmlns="http://www.w3.org/2000/svg">
<path d="M13.3337 17.5333V15.8667C13.3337 14.9826 12.9825 14.1348 12.3573 13.5096C11.7322 12.8845 10.8844 12.5333 10.0003 12.5333H5.00033C4.11627 12.5333 3.26842 12.8845 2.6433 13.5096C2.01818 14.1348 1.66699 14.9826 1.66699 15.8667V17.5333" stroke="#E65100" stroke-width="1.66667" stroke-linecap="round" stroke-linejoin="round"/>
<path d="M7.50033 9.19999C9.34127 9.19999 10.8337 7.70761 10.8337 5.86666C10.8337 4.02571 9.34127 2.53333 7.50033 2.53333C5.65938 2.53333 4.16699 4.02571 4.16699 5.86666C4.16699 7.70761 5.65938 9.19999 7.50033 9.19999Z" stroke="#E65100" stroke-width="1.66667" stroke-linecap="round" stroke-linejoin="round"/>
<path d="M18.333 17.5333V15.8667C18.3325 15.1281 18.0866 14.4106 17.6341 13.8269C17.1817 13.2432 16.5481 12.8263 15.833 12.6417" stroke="#E65100" stroke-width="1.66667" stroke-linecap="round" stroke-linejoin="round"/>
<path d="M13.333 2.64166C14.05 2.82525 14.6855 3.24225 15.1394 3.82692C15.5932 4.4116 15.8395 5.13069 15.8395 5.87083C15.8395 6.61097 15.5932 7.33006 15.1394 7.91474C14.6855 8.49941 14.05 8.91641 13.333 9.1" stroke="#E65100" stroke-width="1.66667" stroke-linecap="round" stroke-linejoin="round"/>
</svg>
