<svg width="20" height="21" viewBox="0 0 20 21" fill="none" xmlns="http://www.w3.org/2000/svg">
<path d="M14.9997 3.83334H4.99967C4.0792 3.83334 3.33301 4.57954 3.33301 5.50001V15.5C3.33301 16.4205 4.0792 17.1667 4.99967 17.1667H14.9997C15.9201 17.1667 16.6663 16.4205 16.6663 15.5V5.50001C16.6663 4.57954 15.9201 3.83334 14.9997 3.83334Z" stroke="#1B5E20" stroke-width="1.66667" stroke-linecap="round" stroke-linejoin="round"/>
<path d="M11.6667 8H8.33333C7.8731 8 7.5 8.3731 7.5 8.83333V12.1667C7.5 12.6269 7.8731 13 8.33333 13H11.6667C12.1269 13 12.5 12.6269 12.5 12.1667V8.83333C12.5 8.3731 12.1269 8 11.6667 8Z" stroke="#1B5E20" stroke-width="1.66667" stroke-linecap="round" stroke-linejoin="round"/>
<path d="M12.5 2.16666V3.83332" stroke="#1B5E20" stroke-width="1.66667" stroke-linecap="round" stroke-linejoin="round"/>
<path d="M12.5 17.1667V18.8333" stroke="#1B5E20" stroke-width="1.66667" stroke-linecap="round" stroke-linejoin="round"/>
<path d="M1.66699 13H3.33366" stroke="#1B5E20" stroke-width="1.66667" stroke-linecap="round" stroke-linejoin="round"/>
<path d="M1.66699 8H3.33366" stroke="#1B5E20" stroke-width="1.66667" stroke-linecap="round" stroke-linejoin="round"/>
<path d="M16.667 13H18.3337" stroke="#1B5E20" stroke-width="1.66667" stroke-linecap="round" stroke-linejoin="round"/>
<path d="M16.667 8H18.3337" stroke="#1B5E20" stroke-width="1.66667" stroke-linecap="round" stroke-linejoin="round"/>
<path d="M7.5 2.16666V3.83332" stroke="#1B5E20" stroke-width="1.66667" stroke-linecap="round" stroke-linejoin="round"/>
<path d="M7.5 17.1667V18.8333" stroke="#1B5E20" stroke-width="1.66667" stroke-linecap="round" stroke-linejoin="round"/>
</svg>
