<svg width="24" height="24" viewBox="0 0 24 24" fill="none" xmlns="http://www.w3.org/2000/svg">
<g opacity="0.6">
<path d="M18.9951 14C20.4851 12.54 21.9951 10.79 21.9951 8.5C21.9951 7.04131 21.4157 5.64236 20.3842 4.61091C19.3528 3.57946 17.9538 3 16.4951 3C14.7351 3 13.4951 3.5 11.9951 5C10.4951 3.5 9.25512 3 7.49512 3C6.03643 3 4.63748 3.57946 3.60603 4.61091C2.57458 5.64236 1.99512 7.04131 1.99512 8.5C1.99512 10.8 3.49512 12.55 4.99512 14L11.9951 21L18.9951 14Z" stroke="#4B5563" stroke-width="2" stroke-linecap="round" stroke-linejoin="round"/>
<path d="M11.9947 5L9.03473 7.96C8.83155 8.16171 8.6703 8.40162 8.56025 8.66593C8.45021 8.93023 8.39355 9.2137 8.39355 9.5C8.39355 9.7863 8.45021 10.0698 8.56025 10.3341C8.6703 10.5984 8.83155 10.8383 9.03473 11.04C9.85473 11.86 11.1647 11.89 12.0347 11.11L14.1047 9.21C14.6236 8.73919 15.2991 8.47839 15.9997 8.47839C16.7003 8.47839 17.3759 8.73919 17.8947 9.21L20.8547 11.87" stroke="#4B5563" stroke-width="2" stroke-linecap="round" stroke-linejoin="round"/>
<path d="M17.9951 15L15.9951 13" stroke="#4B5563" stroke-width="2" stroke-linecap="round" stroke-linejoin="round"/>
<path d="M14.9951 18L12.9951 16" stroke="#4B5563" stroke-width="2" stroke-linecap="round" stroke-linejoin="round"/>
</g>
</svg>
