<svg width="24" height="24" viewBox="0 0 24 24" fill="none" xmlns="http://www.w3.org/2000/svg">
<g opacity="0.6">
<path d="M3.9956 14C3.80636 14.0007 3.62083 13.9476 3.46055 13.847C3.30027 13.7464 3.17183 13.6024 3.09015 13.4317C3.00846 13.261 2.97689 13.0706 2.9991 12.8827C3.0213 12.6948 3.09638 12.517 3.2156 12.37L13.1156 2.17004C13.1899 2.08432 13.2911 2.0264 13.4026 2.00577C13.5141 1.98515 13.6293 2.00305 13.7293 2.05654C13.8293 2.11004 13.9082 2.19594 13.9529 2.30015C13.9977 2.40436 14.0057 2.52069 13.9756 2.63004L12.0556 8.65004C11.999 8.80156 11.98 8.96456 12.0002 9.12505C12.0204 9.28553 12.0793 9.43872 12.1717 9.57147C12.2641 9.70421 12.3874 9.81256 12.5309 9.8872C12.6744 9.96185 12.8338 10.0006 12.9956 10H19.9956C20.1848 9.9994 20.3704 10.0525 20.5306 10.1531C20.6909 10.2537 20.8194 10.3977 20.901 10.5684C20.9827 10.7391 21.0143 10.9295 20.9921 11.1174C20.9699 11.3053 20.8948 11.4831 20.7756 11.63L10.8756 21.83C10.8013 21.9158 10.7001 21.9737 10.5886 21.9943C10.4771 22.0149 10.3619 21.997 10.2619 21.9435C10.1619 21.89 10.083 21.8041 10.0383 21.6999C9.99351 21.5957 9.98552 21.4794 10.0156 21.37L11.9356 15.35C11.9922 15.1985 12.0112 15.0355 11.991 14.875C11.9708 14.7145 11.9119 14.5614 11.8195 14.4286C11.7271 14.2959 11.6038 14.1875 11.4603 14.1129C11.3168 14.0382 11.1574 13.9995 10.9956 14H3.9956Z" stroke="#4B5563" stroke-width="2" stroke-linecap="round" stroke-linejoin="round"/>
</g>
</svg>
