<svg width="24" height="24" viewBox="0 0 24 24" fill="none" xmlns="http://www.w3.org/2000/svg">
<g opacity="0.6">
<path d="M12.0049 20.94C13.5049 20.94 14.7549 22 16.0049 22C19.0049 22 22.0049 14 22.0049 9.77995C21.9708 8.48468 21.4261 7.25538 20.4895 6.36C19.5529 5.46462 18.3004 4.97575 17.0049 4.99995C14.7849 4.99995 13.0049 6.43995 12.0049 6.99995C11.0049 6.43995 9.22488 4.99995 7.00488 4.99995C5.70863 4.97311 4.45458 5.4611 3.51741 6.35703C2.58024 7.25297 2.03636 8.48381 2.00488 9.77995C2.00488 14 5.00488 22 8.00488 22C9.25488 22 10.5049 20.94 12.0049 20.94Z" stroke="#4B5563" stroke-width="2" stroke-linecap="round" stroke-linejoin="round"/>
<path d="M10.0049 2C11.0049 2.5 12.0049 4 12.0049 7" stroke="#4B5563" stroke-width="2" stroke-linecap="round" stroke-linejoin="round"/>
</g>
</svg>
