<svg width="24" height="24" viewBox="0 0 24 24" fill="none" xmlns="http://www.w3.org/2000/svg">
<g opacity="0.6">
<path d="M10.9953 20C9.2394 20.0053 7.54559 19.3505 6.24986 18.1654C4.95412 16.9803 4.15111 15.3515 4.00008 13.6021C3.84905 11.8527 4.36103 10.1104 5.43449 8.72074C6.50795 7.33112 8.06447 6.3957 9.79534 6.1C15.4953 5 16.9953 4.48 18.9953 2C19.9953 4 20.9953 6.18 20.9953 10C20.9953 15.5 16.2153 20 10.9953 20Z" stroke="#4B5563" stroke-width="2" stroke-linecap="round" stroke-linejoin="round"/>
<path d="M1.99512 21C1.99512 18 3.84512 15.64 7.07512 15C9.49512 14.52 11.9951 13 12.9951 12" stroke="#4B5563" stroke-width="2" stroke-linecap="round" stroke-linejoin="round"/>
</g>
</svg>
