<svg width="24" height="24" viewBox="0 0 24 24" fill="none" xmlns="http://www.w3.org/2000/svg">
<g opacity="0.6">
<path d="M7.00488 16.3C9.20488 16.3 11.0049 14.47 11.0049 12.25C11.0049 11.09 10.4349 9.99005 9.29488 9.06005C8.15488 8.13005 7.29488 6.75005 7.00488 5.30005C6.71488 6.75005 5.86488 8.14005 4.71488 9.06005C3.56488 9.98005 3.00488 11.1 3.00488 12.25C3.00488 14.47 4.80488 16.3 7.00488 16.3Z" stroke="#4B5563" stroke-width="2" stroke-linecap="round" stroke-linejoin="round"/>
<path d="M12.5647 6.60002C13.2525 5.50114 13.74 4.28906 14.0047 3.02002C14.5047 5.52002 16.0047 7.92002 18.0047 9.52002C20.0047 11.12 21.0047 13.02 21.0047 15.02C21.0104 16.4023 20.6056 17.7552 19.8415 18.9071C19.0774 20.059 17.9885 20.9582 16.7129 21.4905C15.4372 22.0229 14.0321 22.1644 12.6759 21.8973C11.3197 21.6302 10.0733 20.9664 9.09473 19.99" stroke="#4B5563" stroke-width="2" stroke-linecap="round" stroke-linejoin="round"/>
</g>
</svg>
